<svg width="187" height="36" viewBox="0 0 187 36" fill="none" xmlns="http://www.w3.org/2000/svg">
<path fill-rule="evenodd" clip-rule="evenodd" d="M14.6598 5.55814e-07C15.0698 -0.000396762 15.4504 0.212243 15.6648 0.561378L29.207 22.6202C29.5096 23.1131 29.4088 23.7527 28.9692 24.1288L15.427 35.717C14.9854 36.0949 14.3338 36.0942 13.893 35.7154L0.40967 24.1272C-0.0277188 23.7512 -0.128072 23.1141 0.172626 22.6221L13.6559 0.563325C13.8696 0.213775 14.2498 0.000397873 14.6598 5.55814e-07ZM14.6631 3.43024L2.7041 22.9953L14.6626 33.2731L26.674 22.9947L14.6631 3.43024Z" fill="url(#paint0_linear)"/>
<path d="M13.9544 14.6471L9.24405 19.4118C8.8319 19.8235 8.8319 20.4706 9.24405 20.8235L14.0133 25.5882C14.4254 26 15.0731 26 15.4264 25.5882L20.1956 20.8235C20.6077 20.4118 20.6077 19.7647 20.1956 19.4118L15.4264 14.6471C15.0142 14.2353 14.3665 14.2353 13.9544 14.6471Z" fill="#0A6A80"/>
<path fill-rule="evenodd" clip-rule="evenodd" d="M9.77965 26.651C9.43475 26.3065 9.43475 25.7478 9.77965 25.4032L14.0679 21.119C14.4128 20.7745 14.972 20.7745 15.3169 21.119L19.6051 25.4032C19.95 25.7478 19.95 26.3065 19.6051 26.6511L15.3169 30.9352C14.972 31.2798 14.4128 31.2798 14.0679 30.9352L9.77965 26.651ZM11.6532 26.0271L14.6924 29.0635L17.7316 26.0271L14.6924 22.9908L11.6532 26.0271Z" fill="#65B8B3"/>
<path d="M45.7492 19.1176V15.4118H49.4586V28.4118H45.7492V22.8235H40.1557V28.4118H36.4463V10.7647H40.1557V19.1176H45.7492Z" fill="black"/>
<path d="M54.581 14.2941C53.3446 14.2941 52.3436 13.2941 52.3436 12.0588C52.3436 10.8235 53.3446 9.82352 54.581 9.82352C55.8175 9.82352 56.8184 10.8235 56.8184 12.0588C56.7596 13.2941 55.7586 14.2941 54.581 14.2941ZM56.4063 28.4118H52.6969V15.4118H56.4063V28.4118Z" fill="black"/>
<path d="M59.1736 21.8824C59.1736 18 62.2942 14.8235 66.2391 14.8235C67.4755 14.8235 68.5942 15.1176 69.5952 15.7059V13.5294H73.3046V25.5882C73.3046 29.4706 70.1251 32.6471 66.2391 32.6471C66.0036 32.6471 65.9447 32.6471 65.7092 32.6471V28.8824C62.5297 28.8824 59.1736 25.8235 59.1736 21.8824ZM69.5952 21.8824C69.5952 20.1176 68.0643 18.5294 66.2391 18.5294C64.4727 18.5294 62.883 20.0588 62.883 21.8824C62.883 23.7059 64.4138 25.2353 66.2391 25.2353C68.0643 25.2353 69.5952 23.7059 69.5952 21.8824Z" fill="black"/>
<path d="M85.787 19.1176V15.4118H89.4964V28.4118H85.787V22.8235H80.1935V28.4118H76.543V10.7647H80.2524V19.1176H85.787Z" fill="black"/>
<path d="M106.924 20.9412L111.576 10.3529L116.227 20.9412L119.23 14.1176L122.586 15.5882L116.227 30L111.576 19.4118L106.924 30L100.566 15.5882L103.922 14.1176L106.924 20.9412Z" fill="black"/>
<path d="M126.237 14.2941C125 14.2941 124 13.2941 124 12.0588C124 10.8235 125 9.82352 126.237 9.82352C127.473 9.82352 128.474 10.8235 128.474 12.0588C128.415 13.2941 127.414 14.2941 126.237 14.2941ZM128.062 28.4118H124.353V15.4118H128.062V28.4118Z" fill="black"/>
<path d="M145.078 15.4118L136.717 25.0588H144.195V28.4118H129.416L137.777 18.7647H130.653V15.4118H145.078Z" fill="black"/>
<path d="M160.505 13.5294V30.2353H156.795V28.0588C155.794 28.5882 154.675 28.9412 153.439 28.9412C149.553 28.9412 146.374 25.8235 146.374 21.8824C146.374 17.9412 149.494 14.8235 153.439 14.8235C154.675 14.8235 155.794 15.1176 156.795 15.7059V13.5294H160.505ZM150.142 21.9412C150.142 23.7647 151.614 25.2353 153.439 25.2353C155.264 25.2353 156.795 23.7647 156.795 21.9412C156.795 20.1176 155.323 18.5882 153.439 18.5882C151.614 18.5882 150.142 20.0588 150.142 21.9412Z" fill="black"/>
<path d="M167.452 13.5294V15.7059C168.453 15.1765 169.572 14.8235 170.808 14.8235H171.162V18.5294H170.808C168.924 18.5294 167.452 20 167.452 21.8235V28.3529H163.743V13.5294H167.452Z" fill="black"/>
<path d="M187 10.7647V30.2353H183.291V28.0588C182.29 28.5882 181.171 28.9412 179.935 28.9412C176.049 28.9412 172.869 25.7647 172.869 21.8823C172.869 18 175.99 14.8235 179.935 14.8235C181.171 14.8235 182.29 15.1176 183.291 15.7059V10.7647H187ZM176.637 21.9412C176.637 23.7647 178.109 25.2353 179.935 25.2353C181.76 25.2353 183.291 23.7647 183.291 21.9412C183.291 20.1176 181.819 18.5882 179.935 18.5882C178.109 18.5882 176.637 20.0588 176.637 21.9412Z" fill="black"/>
<defs>
<linearGradient id="paint0_linear" x1="4.2503" y1="6.54618" x2="20.8931" y2="32.1981" gradientUnits="userSpaceOnUse">
<stop stop-color="#144877"/>
<stop offset="0.1466" stop-color="#154B78"/>
<stop offset="0.3698" stop-color="#206488"/>
<stop offset="0.599" stop-color="#338A9F"/>
<stop offset="0.7976" stop-color="#53BEBD"/>
<stop offset="0.9591" stop-color="#A0D5C6"/>
</linearGradient>
</defs>
</svg>
