<svg xmlns="http://www.w3.org/2000/svg" width="238" height="45" fill="none" viewBox="0 0 238 45"><path fill="#fff" fill-rule="evenodd" d="M18.5114 1.50729e-08C19.0579 7.57398e-05 19.5651 0.28453 19.8501 0.750915L36.632 28.2052C37.0337 28.8622 36.8994 29.7137 36.3152 30.2152L19.5333 44.6209C18.9454 45.1255 18.0775 45.1256 17.4895 44.6212L0.697147 30.2156C0.112446 29.714 -0.0218671 28.8621 0.380129 28.2048L17.1725 0.750544C17.4577 0.284238 17.9649 -7.55849e-05 18.5114 1.50729e-08ZM3.7551 28.7028L18.5109 41.3614L33.2573 28.703L18.5108 4.57836L3.7551 28.7028Z" clip-rule="evenodd"/><path fill="#fff" d="M17.2282 18.7076L12.0993 23.8376C11.3942 24.5429 11.3942 25.6863 12.0993 26.3916L17.2282 31.5217C17.9333 32.227 19.0764 32.227 19.7815 31.5217L24.9104 26.3916C25.6155 25.6863 25.6155 24.5429 24.9104 23.8376L19.7815 18.7076C19.0764 18.0023 17.9333 18.0023 17.2282 18.7076Z"/><path fill="#fff" fill-rule="evenodd" d="M12.4391 33.2194C12.0306 32.8107 12.0306 32.1481 12.4391 31.7394L17.7673 26.41C18.1759 26.0013 18.8383 26.0013 19.2469 26.41L24.5751 31.7394C24.9837 32.1481 24.9837 32.8107 24.5751 33.2194L19.2469 38.5487C18.8383 38.9574 18.1759 38.9574 17.7673 38.5487L12.4391 33.2194ZM14.6586 32.4794L18.5071 36.3288L22.3556 32.4794L18.5071 28.63L14.6586 32.4794Z" clip-rule="evenodd"/><path fill="#fff" d="M61.0672 23.9754V19.3279H65.7137V35.6311H61.0672V28.6229H54.0607V35.6311H49.4143V13.5H54.0607V23.9754H61.0672Z"/><path fill="#fff" d="M72.1301 17.9262C70.5813 17.9262 69.3275 16.6721 69.3275 15.1229C69.3275 13.5737 70.5813 12.3196 72.1301 12.3196C73.6789 12.3196 74.9327 13.5737 74.9327 15.1229C74.859 16.6721 73.6052 17.9262 72.1301 17.9262ZM74.4165 35.6311H69.7701V19.3278H74.4165V35.6311Z"/><path fill="#fff" d="M77.8829 27.4426C77.8829 22.5737 81.7918 18.5901 86.7332 18.5901C88.282 18.5901 89.6833 18.959 90.9371 19.6967V16.9672H95.5835V32.0901C95.5835 36.959 91.6009 40.9426 86.7332 40.9426C86.4382 40.9426 86.3644 40.9426 86.0694 40.9426V36.2213C82.0868 36.2213 77.8829 32.3852 77.8829 27.4426ZM90.9371 27.4426C90.9371 25.2295 89.0195 23.2377 86.7332 23.2377C84.5206 23.2377 82.5293 25.1557 82.5293 27.4426C82.5293 29.7295 84.4468 31.6475 86.7332 31.6475C89.0195 31.6475 90.9371 29.7295 90.9371 27.4426Z"/><path fill="#fff" d="M111.219 23.9754V19.3279H115.865V35.6311H111.219V28.6229H104.213V35.6311H99.6399V13.5H104.286V23.9754H111.219Z"/><path fill="#fff" d="M137.696 26.2623L143.523 12.9836L149.349 26.2623L153.111 17.7049L157.315 19.5492L149.349 37.6229L143.523 24.3442L137.696 37.6229L129.731 19.5492L133.935 17.7049L137.696 26.2623Z"/><path fill="#fff" d="M161.887 17.9262C160.338 17.9262 159.085 16.6721 159.085 15.1229C159.085 13.5737 160.338 12.3196 161.887 12.3196C163.436 12.3196 164.69 13.5737 164.69 15.1229C164.616 16.6721 163.362 17.9262 161.887 17.9262ZM164.174 35.6311H159.527V19.3278H164.174V35.6311Z"/><path fill="#fff" d="M185.488 19.3278L175.015 31.4262H184.382V35.6311H165.87L176.343 23.5327H167.419V19.3278H185.488Z"/><path fill="#fff" d="M204.811 16.9672V37.918H200.165V35.1885C198.911 35.8524 197.51 36.295 195.961 36.295C191.093 36.295 187.111 32.3852 187.111 27.4426C187.111 22.5 191.02 18.5901 195.961 18.5901C197.51 18.5901 198.911 18.959 200.165 19.6967V16.9672H204.811ZM191.831 27.5163C191.831 29.8032 193.675 31.6475 195.961 31.6475C198.247 31.6475 200.165 29.8032 200.165 27.5163C200.165 25.2295 198.321 23.3114 195.961 23.3114C193.675 23.3114 191.831 25.1557 191.831 27.5163Z"/><path fill="#fff" d="M213.514 16.9672V19.6967C214.768 19.0327 216.169 18.5901 217.718 18.5901H218.161V23.2377H217.718C215.358 23.2377 213.514 25.0819 213.514 27.3688V35.5573H208.868V16.9672H213.514Z"/><path fill="#fff" d="M238 13.5V37.918H233.354V35.1885C232.1 35.8525 230.698 36.2951 229.15 36.2951C224.282 36.2951 220.299 32.3115 220.299 27.4426C220.299 22.5738 224.208 18.5902 229.15 18.5902C230.698 18.5902 232.1 18.959 233.354 19.6967V13.5H238ZM225.02 27.5164C225.02 29.8033 226.863 31.6475 229.15 31.6475C231.436 31.6475 233.354 29.8033 233.354 27.5164C233.354 25.2295 231.51 23.3115 229.15 23.3115C226.863 23.3115 225.02 25.1557 225.02 27.5164Z"/></svg>